#!OML:ASF \\Waltz\H\Terrain\Patient Classification 1\Animal1\Tuesday\Animal1.ASF
:FULLY-SPECIFIED
:DEGREES
2981
root 13.1333 14.7686 2.46811 24.7256 23.1653 -8.88945
lowerback 30.9145 -1.53045 2.98264
upperback -4.03205 -0.0265858 3.82996
thorax -21.4208 -0.0408357 2.75997
lowerneck -6.14269 7.1641 -1.50953
upperneck -33.8858 11.2065 0.803998
head -10.0101 5.61669 -0.200041
rclavicle -5.22804e-014 -3.77691e-014
rhumerus -75.6905 22.4098 -102.1
rradius 38.4372
rwrist -7.53556
rhand -12.1374 26.2068
rfingers 7.12502
rthumb 13.9246 356.693
lclavicle -5.22804e-014 -3.77691e-014
lhumerus -71.7911 -15.3673 96.274
lradius 40.1183
lwrist -22.0218
lhand -4.26674 -328.02
lfingers 7.12502
lthumb 21.4978 1140.81
rfemur -69.0222 20.4033 19.4188
rtibia 63.5507
rfoot -20.8769 -10.5926
rtoes 10.246
lfemur -67.3449 3.33965 11.8631
ltibia 53.2962
lfoot -16.1664 7.89366
ltoes -41.8983
2982
root 13.1331 14.7683 2.47197 24.7304 23.184 -8.95252
lowerback 30.9233 -1.51595 3.03811
upperback -4.04961 0.0219584 3.85613
thorax -21.4502 -0.0255919 2.73778
lowerneck -6.34917 7.17398 -1.73181
upperneck -33.6127 11.2404 0.957904
head -9.89334 5.65214 -0.0949806
rclavicle -1.37161e-014 -9.14409e-015
rhumerus -75.7314 22.4197 -102.106
rradius 38.4668
rwrist -7.71398
rhand -0.762441 22.4944
rfingers 7.12502
rthumb 24.8599 354.091
lclavicle -1.37161e-014 -9.14409e-015
lhumerus -71.7781 -15.3915 96.3041
lradius 40.1325
lwrist -22.2025
lhand -4.00456 -328.031
lfingers 7.12502
lthumb 21.7496 1140.77
rfemur -69.0179 20.3842 19.5104
rtibia 63.5145
rfoot -20.8284 -10.3857
rtoes 10.7458
lfemur -67.3367 3.29837 11.9855
ltibia 53.2785
lfoot -16.0652 8.15202
ltoes -42.3904
2983
root 13.1326 14.7691 2.47929 24.741 23.157 -8.99031
lowerback 30.9212 -1.47583 3.07635
upperback -4.08177 0.0878324 3.83641
thorax -21.4927 -0.00530573 2.66442
lowerneck -6.45686 7.16001 -1.94498
upperneck -33.3962 11.2492 1.12636
head -9.81589 5.6709 0.00835324
rclavicle 4.17448e-015 3.57812e-015
rhumerus -75.8984 22.4544 -102.318
rradius 38.485
rwrist -7.96931
rhand -4.35113 25.556
rfingers 7.12502
rthumb 21.4167 356.72
lclavicle 4.17448e-015 3.57812e-015
lhumerus -71.7662 -15.4255 96.276
lradius 40.1233
lwrist -22.407
lhand -4.04417 -327.993
lfingers 7.12502
lthumb 21.7115 1140.81
rfemur -68.9989 20.4113 19.5605
rtibia 63.4751
rfoot -20.6166 -11.1413
rtoes 6.93842
lfemur -67.2705 3.28851 12.0563
ltibia 53.2196
lfoot -16.1543 8.10843
ltoes -42.165
2984
root 13.1317 14.7783 2.49111 24.8148 23.061 -8.76858
lowerback 30.9028 -1.41786 2.91569
upperback -4.10612 0.0787 3.73206
thorax -21.5143 0.00151797 2.63793
lowerneck -6.39355 7.16372 -2.07474
upperneck -33.3919 11.2715 1.18672
head -9.83789 5.69098 0.0454008
rclavicle 1.09332e-014 -4.25399e-014
rhumerus -75.9804 22.4741 -102.517
rradius 38.4147
rwrist -8.21511
rhand -4.98072 25.7491
rfingers 7.12502
rthumb 20.8119 356.845
lclavicle 1.09332e-014 -4.25399e-014
lhumerus -71.759 -15.4995 96.2942
lradius 40.0743
lwrist -22.514
lhand -4.18987 -327.609
lfingers 7.12502
lthumb 21.5716 1141.21
rfemur -68.93 20.4124 19.3573
rtibia 63.4236
rfoot -20.3559 -11.8892
rtoes 3.49903
lfemur -67.1158 3.19283 11.8398
ltibia 53.132
lfoot -16.3352 7.84965
ltoes -41.357
2985
root 13.1326 14.7943 2.50239 24.8451 22.9359 -8.5138
lowerback 30.9396 -1.37218 2.71877
upperback -4.11636 0.0418963 3.63065
thorax -21.5451 0.0020238 2.64859
lowerneck -6.29178 7.17857 -2.12173
upperneck -33.3917 11.2809 1.14915
head -9.85591 5.70289 0.0341451
rclavicle 8.74653e-015 -2.8625e-014
rhumerus -76.0177 22.4784 -102.542
rradius 38.4401
rwrist -8.34935
rhand -2.92253 24.7778
rfingers 7.12502
rthumb 22.7883 356.104
lclavicle 8.74653e-015 -2.8625e-014
lhumerus -71.759 -15.5771 96.3818
lradius 39.987
lwrist -22.5946
lhand -4.21698 -327.322
lfingers 7.12502
lthumb 21.5456 1141.5
rfemur -68.7732 20.4312 19.1097
rtibia 63.3391
rfoot -20.206 -12.1806
rtoes 1.84124
lfemur -66.8783 2.98843 11.6325
ltibia 53.0364
lfoot -16.4859 7.93293
ltoes -41.0833
2986
root 13.1354 14.8007 2.51089 24.7793 22.8527 -8.6001
lowerback 31.0174 -1.34681 2.77228
upperback -4.15745 0.103206 3.63002
thorax -21.641 0.0205569 2.59297
lowerneck -6.32432 7.17241 -2.1262
upperneck -33.1321 11.225 1.0718
head -9.74325 5.68679 0.0206978
rclavicle 4.17448e-015 -3.22031e-014
rhumerus -76.1705 22.4998 -102.567
rradius 38.509
rwrist -8.29787
rhand -1.97642 26.2126
rfingers 7.12502
rthumb 23.696 357.653
lclavicle 4.17448e-015 -3.22031e-014
lhumerus -71.8053 -15.5464 96.4077
lradius 39.957
lwrist -22.707
lhand -4.39478 -327.499
lfingers 7.12502
lthumb 21.3748 1141.34
rfemur -68.6258 20.5251 19.2195
rtibia 63.2304
rfoot -20.0703 -12.6816
rtoes -0.417113
lfemur -66.7083 2.96251 11.7402
ltibia 52.9787
lfoot -16.5059 8.16893
ltoes -41.3404
